<svg id="Layer_1" enable-background="new 0 0 128 128" height="512" viewBox="0 0 128 128" width="512" xmlns="http://www.w3.org/2000/svg"><g><g fill="#4bb9ec"><path d="m126.3 64v1.8c-.4 15.6-6.7 30.4-17.5 41.6-.8.8-1.6 1.7-2.5 2.4-23.8 22-60.5 22-84.4 0-.9-.8-1.7-1.6-2.5-2.4-10.9-11.2-17.2-26.1-17.6-41.6 0-.6 0-1.2 0-1.8s0-1.2 0-1.8c.4-15.6 6.7-30.4 17.5-41.6.8-.8 1.6-1.7 2.5-2.5 23.8-22 60.5-22 84.4 0 .9.8 1.7 1.6 2.5 2.5 10.9 11.2 17.1 26 17.5 41.6 0 .6.1 1.2.1 1.8z"/><path d="m126.3 64v1.8c-.4 15.6-6.7 30.4-17.5 41.6-.8.8-1.6 1.7-2.5 2.4-23.8 22-60.5 22-84.4 0-.9-.8-1.7-1.6-2.5-2.4-10.9-11.2-17.2-26.1-17.6-41.6 0-.6 0-1.2 0-1.8s0-1.2 0-1.8c.4-15.6 6.7-30.4 17.5-41.6.8-.8 1.6-1.7 2.5-2.5 23.8-22 60.5-22 84.4 0 .9.8 1.7 1.6 2.5 2.5 10.9 11.2 17.1 26 17.5 41.6 0 .6.1 1.2.1 1.8z"/><path d="m126.3 64v1.8c-.4 15.6-6.7 30.4-17.5 41.6-.8.8-1.6 1.7-2.5 2.4-9.3 8.6-21.1 14.2-33.6 15.9-5.7.8-11.4.8-17.1 0-12.6-1.7-24.3-7.3-33.6-15.9-.9-.8-1.7-1.6-2.5-2.4-11-11.2-17.3-26.1-17.7-41.6 0-.6 0-1.2 0-1.8s0-1.2 0-1.8c.4-15.6 6.7-30.4 17.5-41.6.8-.8 1.6-1.7 2.5-2.5 9.3-8.5 21.1-14 33.7-15.8 5.7-.8 11.4-.8 17.1 0 12.6 1.7 24.3 7.3 33.6 15.9.9.8 1.7 1.6 2.5 2.5 10.9 11.2 17.1 26 17.5 41.6 0 .5.1 1.1.1 1.7z"/></g><g fill="#0089dd"><path d="m108.7 107.3c-5-4.9-10.9-9-17.3-12 1.2-4.6 2.2-9.3 2.8-14 .1-1-.5-1.8-1.5-2-1-.1-1.8.5-2 1.5-.6 4.4-1.4 8.8-2.6 13.1-15.5-6.3-32.8-6.3-48.3 0-1.1-4.3-2-8.7-2.6-13.1-.1-1-1-1.6-2-1.5-.9.1-1.6 1-1.5 1.9.6 4.7 1.6 9.4 2.8 14-6.4 3-12.2 7.1-17.3 12 .8.8 1.6 1.7 2.5 2.4 4.6-4.5 9.9-8.2 15.8-11.1 4.1 13.2 10.4 22.8 17.9 27 5.7.8 11.4.8 17.1 0 7.4-4.2 13.8-13.7 17.9-26.9 5.8 2.8 11.1 6.6 15.8 11.1.8-.7 1.7-1.5 2.5-2.4zm-44.7 17.2c-9.4 0-18.1-10.6-23.2-27.3 14.9-6.1 31.5-6.1 46.4 0-5.1 16.7-13.8 27.3-23.2 27.3z"/><path d="m108.7 20.7c-.8-.8-1.7-1.7-2.5-2.5-4.6 4.5-9.9 8.2-15.8 11.1-4.1-13.2-10.4-22.8-17.8-27-5.7-.8-11.4-.8-17.1 0-7.4 4.2-13.8 13.7-17.9 27-5.8-2.8-11.1-6.6-15.8-11.1-.9.8-1.7 1.6-2.5 2.5 5.1 4.9 10.9 9 17.3 12-1.2 4.6-2.2 9.3-2.8 14-.1 1 .5 1.8 1.5 2s1.8-.5 2-1.5c.6-4.4 1.4-8.8 2.6-13.1 7.7 3.1 15.9 4.7 24.2 4.7s16.5-1.6 24.2-4.7c1.1 4.3 2 8.7 2.6 13.1.1.9.9 1.5 1.7 1.5h.2c1-.1 1.6-1 1.5-2-.6-4.7-1.6-9.4-2.8-14 6.3-3 12.1-7.1 17.2-12zm-44.7 14.6c-8 0-15.8-1.6-23.2-4.6 5.1-16.6 13.8-27.2 23.2-27.2s18.1 10.6 23.2 27.3c-7.4 3-15.2 4.6-23.2 4.5z"/><path d="m126.3 64v1.8h-18.1c-1 0-1.8-.8-1.8-1.8s.8-1.8 1.8-1.8h18.1c-.1.6 0 1.2 0 1.8z"/><path d="m21.7 64c0 1-.8 1.7-1.7 1.8h-18.2c0-.6 0-1.2 0-1.8s0-1.2 0-1.8h18.1c1 0 1.8.8 1.8 1.8z"/></g><path d="m19.9 47h88.2v34h-88.2z" fill="#f4f5ef"/><path d="m57.6 70.4c.7 1.5 2.8 1.3 3.3-.2l3.1-7.3 3.1 7.5c.6 1.5 2.9 1.4 3.3-.2l4.7-11.2c.3-1-.1-2-1.1-2.3-.8-.3-1.8.1-2.2.9l-3.1 7.6-3.1-7.4c-.5-1.5-2.7-1.6-3.3-.1l-3.1 7.6-3.1-7.5c-.4-.9-1.4-1.3-2.3-1-.9.4-1.3 1.4-1 2.3z" fill="#474f54"/><path d="m84.6 70.4c.7 1.5 2.8 1.4 3.3-.2l3.1-7.3 3.1 7.5c.6 1.5 2.9 1.4 3.3-.2l4.7-11.2c.3-.9-.2-1.9-1.1-2.2-.8-.3-1.8.1-2.2.9l-3.1 7.6-3.1-7.4c-.5-1.5-2.7-1.6-3.3-.1l-3.1 7.6-3.1-7.5c-.4-.9-1.4-1.3-2.3-.9s-1.3 1.4-.9 2.3z" fill="#474f54"/><path d="m34 70.2 3.1-7.3 3.1 7.6c.7 1.5 2.8 1.3 3.3-.2l4.7-11.2c.3-.9-.1-1.9-1-2.2s-1.8.1-2.2.9l-3.1 7.6-3.1-7.4c-.5-1.5-2.6-1.6-3.3-.1l-3.1 7.6-3.1-7.5c-.4-.9-1.4-1.3-2.3-1s-1.3 1.4-1 2.3l4.8 11.4c.5 1.2 2.7 1.1 3.2-.5z" fill="#474f54"/></g></svg>